<svg xmlns:svg="http://www.w3.org/2000/svg" xmlns="http://www.w3.org/2000/svg" width="128" height="64" viewBox="0 0 128 64.000001" id="svg2" version="1.1">
  <defs id="defs4"/>
  <metadata id="metadata7"/>
  <g id="GAWDS" transform="matrix(0.37662567,0,0,0.37662567,-96.819161,-265.95563)" fill="#ffffff">
    <path d="m280.56 784.37q4.86 0 9.09 1.89 4.32 1.8 7.47 5.04 3.24 3.15 5.04 7.47 1.89 4.32 1.89 9.18 0 3.6-1.08 6.93-0.99 3.33-2.88 6.12-1.8 2.79-4.41 4.95-2.61 2.16-5.67 3.51 3.78 2.34 5.94 6.21 2.25 3.96 2.25 8.73 0 3.69-1.44 6.84-1.35 3.24-3.78 5.58-2.34 2.43-5.58 3.78-3.24 1.44-6.84 1.44l0-4.68q2.7 0 5.04-1.08 2.34-0.99 4.05-2.79 1.8-1.71 2.79-4.05 1.08-2.34 1.08-5.04 0-2.7-1.08-5.04-0.99-2.34-2.79-4.14-1.71-1.71-4.05-2.79-2.34-0.99-5.04-0.99-4.86 0-9.18-1.8-4.23-1.89-7.47-5.04-3.15-3.24-5.04-7.47-1.8-4.32-1.8-9.18 0-4.86 1.8-9.18 1.89-4.32 5.04-7.47 3.24-3.24 7.47-5.04 4.32-1.89 9.18-1.89zm0 4.77q-3.87 0-7.29 1.53-3.42 1.44-6.03 3.96-2.52 2.52-4.05 6.03-1.44 3.42-1.44 7.29 0 3.87 1.44 7.29 1.53 3.42 4.05 6.03 2.61 2.52 6.03 4.05 3.42 1.44 7.29 1.44 3.87 0 7.29-1.44 3.51-1.53 6.03-4.05 2.52-2.61 3.96-6.03 1.53-3.42 1.53-7.29 0-3.87-1.53-7.29-1.44-3.51-3.96-6.03-2.52-2.52-6.03-3.96-3.42-1.53-7.29-1.53zm71.34-5.04q4.86 0 9.18 1.89 4.32 1.8 7.47 5.04 3.24 3.15 5.04 7.47 1.89 4.32 1.89 9.18l0 22.5-4.77 0 0-8.37q-3.15 4.32-8.1 6.84-4.86 2.52-10.71 2.52-4.86 0-9.18-1.8-4.23-1.89-7.47-5.04-3.15-3.24-5.04-7.47-1.8-4.32-1.8-9.18 0-4.86 1.8-9.18 1.89-4.32 5.04-7.47 3.24-3.24 7.47-5.04 4.32-1.89 9.18-1.89zm0 4.77q-3.87 0-7.29 1.53-3.42 1.44-6.03 3.96-2.52 2.52-4.05 6.03-1.44 3.42-1.44 7.29 0 3.87 1.44 7.29 1.53 3.42 4.05 6.03 2.61 2.52 6.03 4.05 3.42 1.44 7.29 1.44 3.87 0 7.29-1.44 3.51-1.53 6.03-4.05 2.52-2.61 3.96-6.03 1.53-3.42 1.53-7.29 0-3.87-1.53-7.29-1.44-3.51-3.96-6.03-2.52-2.52-6.03-3.96-3.42-1.53-7.29-1.53zm69.15 42.39q-3.69 0-6.93-1.35-3.15-1.44-5.58-3.78-2.34-2.43-3.78-5.58-1.35-3.24-1.35-6.93l0-28.35 4.77 0 0 28.35q0 2.7 0.99 5.13 0.99 2.34 2.7 4.14 1.8 1.71 4.14 2.7 2.34 0.99 5.04 0.99 2.7 0 5.04-0.99 2.34-0.99 4.05-2.7 1.8-1.8 2.79-4.14 1.08-2.43 1.08-5.13l0-28.35 4.68 0 0 28.35q0 2.7 0.99 5.13 1.08 2.34 2.79 4.14 1.8 1.71 4.14 2.7 2.34 0.99 5.04 0.99 2.7 0 5.04-0.99 2.34-0.99 4.05-2.7 1.8-1.8 2.79-4.14 1.08-2.43 1.08-5.13l0-28.35 4.68 0 0 28.35q0 3.69-1.44 6.93-1.35 3.15-3.78 5.58-2.34 2.34-5.58 3.78-3.24 1.35-6.84 1.35-4.86 0-8.91-2.34-4.05-2.43-6.39-6.48-2.34 4.05-6.39 6.48-3.96 2.34-8.91 2.34zM518 784.1q5.85 0 10.71 2.61 4.86 2.52 8.1 6.84l0-30.87 4.68 0 0 45q0 4.86-1.89 9.18-1.8 4.23-5.04 7.47-3.15 3.15-7.47 5.04-4.23 1.8-9.09 1.8-4.86 0-9.18-1.8-4.23-1.89-7.47-5.04-3.15-3.24-5.04-7.47-1.8-4.32-1.8-9.18 0-4.86 1.8-9.18 1.89-4.32 5.04-7.47 3.24-3.24 7.47-5.04 4.32-1.89 9.18-1.89zm0 4.77q-3.87 0-7.29 1.53-3.42 1.44-6.03 3.96-2.52 2.52-4.05 6.03-1.44 3.42-1.44 7.29 0 3.87 1.44 7.29 1.53 3.42 4.05 6.03 2.61 2.52 6.03 4.05 3.42 1.44 7.29 1.44 3.87 0 7.29-1.44 3.42-1.53 5.94-4.05 2.61-2.61 4.05-6.03 1.53-3.42 1.53-7.29 0-3.87-1.53-7.29-1.44-3.51-4.05-6.03-2.52-2.52-5.94-3.96-3.42-1.53-7.29-1.53zm60.48 20.7q-2.34 0-4.5-0.81-2.07-0.9-3.69-2.34-1.53-1.53-2.52-3.51-0.9-2.07-0.99-4.41-0.18-1.26 0-2.7 0.09-2.34 0.99-4.32 0.99-2.07 2.52-3.51 1.62-1.53 3.69-2.34 2.16-0.9 4.5-0.9l16.92 0 0 4.68-16.92 0q-2.79 0-4.86 1.89-1.98 1.89-2.16 4.68-0.18 1.17 0 2.34 0.18 2.79 2.16 4.68 2.07 1.89 4.86 1.89l6.66 0 0.09 0q2.34 0 4.41 0.9 2.16 0.81 3.69 2.34 1.62 1.53 2.52 3.6 0.99 1.98 1.08 4.32l0 2.43 0 0.09 0 0.18q0 2.43-0.99 4.5-0.9 2.07-2.52 3.69-1.62 1.53-3.78 2.43-2.07 0.9-4.5 0.9l-17.37 0 0-4.68 17.37 0q2.61 0 4.59-1.62 1.98-1.71 2.43-4.32 0-0.27 0-0.54 0.09-0.36 0.09-0.63l0-1.89q-0.09-2.88-2.16-4.95-2.07-2.07-4.95-2.07l-6.66 0z" id="Base"/>
  </g>
  
</svg>
